<svg width="24" height="24" viewBox="0 0 24 24" fill="none" xmlns="http://www.w3.org/2000/svg">
<g clip-path="url(#clip0_1671_1925)">
<path fill-rule="evenodd" clip-rule="evenodd" d="M16.2806 9.21937C16.4215 9.36005 16.5006 9.55094 16.5006 9.75C16.5006 9.94906 16.4215 10.1399 16.2806 10.2806L11.0306 15.5306C10.8899 15.6715 10.6991 15.7506 10.5 15.7506C10.3009 15.7506 10.1101 15.6715 9.96937 15.5306L7.71938 13.2806C7.42632 12.9876 7.42632 12.5124 7.71938 12.2194C8.01243 11.9263 8.48757 11.9263 8.78063 12.2194L10.5 13.9397L15.2194 9.21937C15.3601 9.07854 15.5509 8.99941 15.75 8.99941C15.9491 8.99941 16.1399 9.07854 16.2806 9.21937ZM21 4.5V19.5C21 20.3284 20.3284 21 19.5 21H4.5C3.67157 21 3 20.3284 3 19.5V4.5C3 3.67157 3.67157 3 4.5 3H19.5C20.3284 3 21 3.67157 21 4.5ZM19.5 19.5V4.5H4.5V19.5H19.5Z" fill="#0D1A1C"/>
</g>
<defs>
<clipPath id="clip0_1671_1925">
<rect width="24" height="24" fill="white"/>
</clipPath>
</defs>
</svg>
