<svg width="24" height="24" viewBox="0 0 24 24" fill="none" xmlns="http://www.w3.org/2000/svg">
<path fill-rule="evenodd" clip-rule="evenodd" d="M6.685 17.2456C6.34982 17.4509 6.098 17.7681 5.97402 18.1411C5.85004 18.5141 5.86189 18.9189 6.00746 19.284C6.15303 19.6491 6.42296 19.951 6.76957 20.1364C7.11617 20.3218 7.51714 20.3787 7.90165 20.2971C8.28615 20.2155 8.62943 20.0006 8.87086 19.6904C9.11228 19.3802 9.2363 18.9947 9.22102 18.6019C9.20573 18.2092 9.05212 17.8344 8.78732 17.544C8.52252 17.2535 8.16357 17.0659 7.77389 17.0144C7.75308 16.9399 7.734 16.8649 7.71667 16.7894C7.64101 16.4462 7.58168 16.0995 7.53889 15.7506C7.49296 15.3979 7.46699 15.0428 7.46111 14.6872C7.46021 14.5896 7.46299 14.4919 7.46944 14.3944C7.68315 14.333 7.89704 14.278 8.11111 14.2294C8.35611 14.1739 8.50167 14.4628 8.61889 14.6972L8.66667 14.7911H15.1939C15.3211 14.55 15.6094 14.1656 15.8889 14.2294C16.1874 14.2976 16.4854 14.3778 16.7828 14.47L16.7811 14.4706C16.78 14.4694 16.78 14.4698 16.7811 14.4717C16.7833 14.4794 16.7956 14.5161 16.8078 14.5939C16.8219 14.6843 16.8311 14.8 16.8356 14.9411C16.8433 15.2211 16.8272 15.5617 16.7944 15.905C16.7611 16.2478 16.7117 16.5794 16.6561 16.8411C16.6439 16.8993 16.6317 16.9522 16.6194 17H15.8889C15.7857 17.0001 15.6847 17.0288 15.5969 17.0831C15.5092 17.1373 15.4383 17.215 15.3922 17.3072L14.8367 18.4183C14.798 18.4954 14.7779 18.5804 14.7778 18.6667V19.7778C14.7778 19.9251 14.8363 20.0664 14.9405 20.1706C15.0447 20.2748 15.186 20.3333 15.3333 20.3333H16.4444V19.2222H15.8889V18.7978L16.2322 18.1111H17.7678L18.1111 18.7978V19.2222H17.5556V20.3333H18.6667C18.814 20.3333 18.9553 20.2748 19.0595 20.1706C19.1637 20.0664 19.2222 19.9251 19.2222 19.7778V18.6667C19.2221 18.5804 19.202 18.4954 19.1633 18.4183L18.6078 17.3072C18.5617 17.215 18.4908 17.1373 18.4031 17.0831C18.3153 17.0288 18.2143 17.0001 18.1111 17H17.7578C17.8172 16.7039 17.8667 16.3583 17.9 16.0117C17.9367 15.6372 17.9556 15.2489 17.9461 14.91L17.9456 14.8944C20.1611 15.8306 22 17.37 22 18.9833V22H2V18.9833C2 17.2989 4.00556 15.6944 6.35056 14.7739C6.35667 15.1194 6.38944 15.51 6.43667 15.8883C6.48778 16.2967 6.55722 16.7028 6.63389 17.0372C6.65056 17.1087 6.66759 17.1781 6.685 17.2456ZM7.55556 19.2306C7.85444 19.2306 8.11111 18.9861 8.11111 18.6667C8.11111 18.3478 7.85444 18.1028 7.55556 18.1028C7.25667 18.1028 7 18.3472 7 18.6667C7 18.9856 7.25667 19.2306 7.55556 19.2306ZM12 12C13.1787 12 14.3092 11.5317 15.1427 10.6983C15.9762 9.86476 16.4444 8.7343 16.4444 7.55556C16.4444 6.37682 15.9762 5.24635 15.1427 4.41286C14.3092 3.57936 13.1787 3.11111 12 3.11111C10.8213 3.11111 9.6908 3.57936 8.8573 4.41286C8.02381 5.24635 7.55556 6.37682 7.55556 7.55556C7.55556 8.7343 8.02381 9.86476 8.8573 10.6983C9.6908 11.5317 10.8213 12 12 12ZM12 13.1111C15.0683 13.1111 17.5556 10.6239 17.5556 7.55556C17.5556 4.48722 15.0683 2 12 2C8.93167 2 6.44444 4.48722 6.44444 7.55556C6.44444 10.6239 8.93167 13.1111 12 13.1111Z" fill="black"/>
</svg>
