<svg width="24" height="24" viewBox="0 0 24 24" fill="none" xmlns="http://www.w3.org/2000/svg">
<path d="M9.877 21L9.515 18.108C9.19567 18.0113 8.85067 17.86 8.48 17.654C8.10867 17.4473 7.793 17.226 7.533 16.99L4.865 18.125L3 14.875L5.306 13.136C5.276 12.956 5.25167 12.77 5.233 12.578C5.213 12.386 5.203 12.1997 5.203 12.019C5.203 11.851 5.213 11.6743 5.233 11.489C5.25167 11.3037 5.276 11.095 5.306 10.863L3 9.126L4.865 5.914L7.513 7.03C7.81167 6.78133 8.135 6.557 8.483 6.357C8.82967 6.157 9.16733 6.00233 9.496 5.893L9.876 3H13.608L13.969 5.912C14.3523 6.04667 14.691 6.201 14.985 6.375C15.279 6.549 15.582 6.767 15.894 7.029L18.619 5.914L20.484 9.125L18.102 10.921C18.1567 11.1277 18.1873 11.3173 18.194 11.49C18.2007 11.6627 18.204 11.8327 18.204 12C18.204 12.1553 18.1973 12.319 18.184 12.491C18.1713 12.6637 18.142 12.8723 18.096 13.117L20.44 14.875L18.575 18.125L15.894 16.971C15.5827 17.233 15.2693 17.4573 14.954 17.644C14.6387 17.8307 14.3103 17.979 13.969 18.089L13.608 21H9.877ZM10.742 20H12.698L13.067 17.292C13.571 17.1587 14.0243 16.9757 14.427 16.743C14.831 16.5103 15.2417 16.1917 15.659 15.787L18.154 16.85L19.148 15.15L16.959 13.506C17.0423 13.2213 17.0977 12.9593 17.125 12.72C17.1517 12.4813 17.165 12.2413 17.165 12C17.165 11.7467 17.1517 11.5067 17.125 11.28C17.0983 11.0533 17.043 10.8043 16.959 10.533L19.186 8.85L18.192 7.15L15.64 8.22C15.3373 7.88733 14.9397 7.57567 14.447 7.285C13.9537 6.995 13.487 6.80267 13.047 6.708L12.742 4H10.748L10.436 6.689C9.932 6.79633 9.46867 6.96967 9.046 7.209C8.624 7.44767 8.204 7.776 7.786 8.194L5.292 7.15L4.298 8.85L6.467 10.47C6.38367 10.694 6.32533 10.9373 6.292 11.2C6.25867 11.4627 6.242 11.736 6.242 12.02C6.242 12.2733 6.25867 12.525 6.292 12.775C6.32533 13.025 6.37733 13.2683 6.448 13.505L4.298 15.15L5.292 16.85L7.767 15.8C8.15967 16.196 8.567 16.5137 8.989 16.753C9.41167 16.9923 9.88767 17.1787 10.417 17.312L10.742 20ZM11.715 14.5C12.4123 14.5 13.0033 14.2577 13.488 13.773C13.9727 13.2883 14.215 12.6973 14.215 12C14.215 11.3027 13.9727 10.7117 13.488 10.227C13.0033 9.74233 12.4123 9.5 11.715 9.5C11.0137 9.5 10.4217 9.74233 9.939 10.227C9.45633 10.7117 9.215 11.3027 9.215 12C9.215 12.6973 9.45633 13.2883 9.939 13.773C10.4217 14.2577 11.0137 14.5 11.715 14.5Z" fill="black"/>
</svg>
